# xmcd
#
# Track frame offsets:
#	150
#	7743
#	19679
#	30416
#	42044
#	51893
#	62271
#	74261
#	98020
#	107046
#	115710
#	124165
#	136635
#	141520
#	148539
#
# Disc length: 2127 seconds
#
# Revision: 0
# Processed by: cddbd v1.5.1PL0 Copyright (c) Steve Scherf et al.
# Submitted via: dBpowerAMP V4.0
#
DISCID=bb084d0f
DTITLE=Don Helms - 50 Years Of Legendary Steel Guitar
DYEAR=2000
DGENRE=Country
TTITLE0=Remington Ride
TTITLE1=Corn Crib
TTITLE2=Mud Hut
TTITLE3=Canal Street Parade
TTITLE4=Swing Shift Bounce
TTITLE5=Rock Point
TTITLE6=Fish Tail
TTITLE7=The Funeral
TTITLE8=San Antonio Rose
TTITLE9=Roadside Rag
TTITLE10=Georgia Steel Guitar
TTITLE11=Don Helms the Man
TTITLE12=I'm So Lonesome
TTITLE13=Mansion On The Hill
TTITLE14=Cold, Cold Heart
EXTD=
EXTT0=
EXTT1=
EXTT2=
EXTT3=
EXTT4=
EXTT5=
EXTT6=
EXTT7=
EXTT8=
EXTT9=
EXTT10=
EXTT11=
EXTT12=
EXTT13=
EXTT14=
PLAYORDER=
